<svg viewBox="0 0 100 100" xmlns="http://www.w3.org/2000/svg"><path d="M78,71.5Q75,93,53.5,87Q32,81,21,65.5Q10,50,18,29Q26,8,49.5,9Q73,10,77,30Q81,50,78,71.5Z" stroke="none" stroke-width="0" fill="#ece7f6"/><path d="M82.5,67.5Q70,85,49,86.5Q28,88,14,69Q0,50,14,30.5Q28,11,48,15Q68,19,81.5,34.5Q95,50,82.5,67.5Z" stroke="none" stroke-width="0" fill="#e1d3f4"/><path d="M80.5,63Q65,76,49.5,77Q34,78,20,64Q6,50,18,32.5Q30,15,51,13.5Q72,12,84,31Q96,50,80.5,63Z" stroke="none" stroke-width="0" fill="#d6bff2"/><path d="M77,69Q72,88,53.5,82Q35,76,25.5,63Q16,50,24,34.5Q32,19,51.5,16.5Q71,14,76.5,32Q82,50,77,69Z" stroke="none" stroke-width="0" fill="#cbabf0"/><path d="M84.5,70.5Q74,91,52.5,86.5Q31,82,20,66Q9,50,18.5,31Q28,12,47,17.5Q66,23,80.5,36.5Q95,50,84.5,70.5Z" stroke="none" stroke-width="0" fill="#c097ee"/><path d="M82,70Q73,90,49.5,90.5Q26,91,21.5,70.5Q17,50,23.5,32.5Q30,15,51,13Q72,11,81.5,30.5Q91,50,82,70Z" stroke="none" stroke-width="0" fill="#b583ec"/><path d="M81,64.5Q67,79,47,84Q27,89,21,69.5Q15,50,22.5,33Q30,16,48.5,18Q67,20,81,35Q95,50,81,64.5Z" stroke="none" stroke-width="0" fill="#aa6fea"/><path d="M77.5,64.5Q67,79,46.5,85.5Q26,92,18,71Q10,50,22.5,37Q35,24,52,21Q69,18,78.5,34Q88,50,77.5,64.5Z" stroke="none" stroke-width="0" fill="#9f5be8"/></svg>