<svg id="eKIm7JxtDaM1" xmlns="http://www.w3.org/2000/svg" xmlns:xlink="http://www.w3.org/1999/xlink" viewBox="0 0 100 100" shape-rendering="geometricPrecision" text-rendering="geometricPrecision"><path id="eKIm7JxtDaM2" d="M78,71.5Q75,93,53.5,87t-32.5-21.5-3-36.5t31.5-20t27.5,21t1,41.5Z" transform="matrix(.575005 0.81815-.81815 0.575005 59.745287-17.750936)" fill="#ece7f6" stroke-width="0"/><path id="eKIm7JxtDaM3" d="M82.5,67.5Q70,85,49,86.5t-35-17.5t0-38.5t34-15.5t33.5,19.5t1,33Z" transform="matrix(-.481754-.876307 0.876307-.481754 26.538525 116.623742)" fill="#e1d3f4" stroke-width="0"/><path id="eKIm7JxtDaM4" d="M80.5,63Q65,76,49.5,77t-29.5-13-2-31.5t33-19t33,17.5-3.5,32Z" transform="matrix(-.821149-.570714 0.570714-.821149 66.791034 111.387951)" fill="#d6bff2" stroke-width="0"/><path id="eKIm7JxtDaM5" d="M77,69Q72,88,53.5,82t-28-19-1.5-28.5t27.5-18t25,15.5.5,37Z" fill="#cbabf0" stroke-width="0"/><path id="eKIm7JxtDaM6" d="M84.5,70.5Q74,91,52.5,86.5t-32.5-20.5-1.5-35t28.5-13.5t33.5,19t4,34Z" transform="matrix(-.135716 0.990748-.990748-.135716 109.80215 7.788785)" fill="#c097ee" stroke-width="0"/><path id="eKIm7JxtDaM7" d="M82,70Q73,90,49.5,90.5t-28-20t2-38t27.5-19.5t30.5,17.5.5,39.5Z" fill="#b583ec" stroke-width="0"/><path id="eKIm7JxtDaM8" d="M81,64.5Q67,79,47,84t-26-14.5t1.5-36.5t26-15t32.5,17t0,29.5Z" transform="matrix(.777146-.62932 0.62932 0.777146-20.501772 44.914666)" fill="#aa6fea" stroke-width="0"/><path id="eKIm7JxtDaM9" d="M77.5,64.5Q67,79,46.5,85.5t-28.5-14.5t4.5-34t29.5-16t26.5,13-1,30.5Z" transform="matrix(-.19509-.980785 0.980785-.19509 5.746073 112.27836)" fill="#9f5be8" stroke-width="0"/>
</svg>
